<svg xmlns="http://www.w3.org/2000/svg" width="176" height="48">
    <path fill="#EE3E33" d="M123.38 9.2c-1.4 1.88-2 3.75-2.16 5.6 2.46-.36 5.66-1.32 5.64-1.78-.02-.3-2.14-.68-3.46-1.23-.87-.39-.93-1.17-.67-1.58.9-1.37 4.15-2.77 8.14-4.05 3.71-1.2 8.6-2.14 13.5-2.82-1.45-1.9-3.55-2.25-5.76-2.29 1.38-.36 3-.53 5.58-.76-.93-.11-2.78-.34-5.1-.28-4.6.13-9.32.83-14.03 2.57-4.37 1.61-7.43 3.43-9.57 5.75H0V9.7h114.39c-.8 1.08-1.57 2.46-1.57 3.75.02 1.3.38 2.3 1.14 3.44.15-2.5 1.91-4.5 4.37-6.6a42.5 42.5 0 0 1 11.18-6.51c-3.24 2.05-4.69 3.54-6.13 5.4M153.61 8.37c.07-.21.09-.43.09-.66a5.96 5.96 0 0 0-1.15-3.44c-.15 2.5-1.9 4.5-4.37 6.6A42.5 42.5 0 0 1 137 17.4c3.25-2.06 4.7-3.55 6.13-5.41 1.4-1.9 2-3.76 2.17-5.6-2.46.36-5.67 1.31-5.65 1.78.02.3 2.15.68 3.46 1.23.87.38.94 1.16.68 1.57-.91 1.38-4.16 2.78-8.15 4.05-3.7 1.2-8.59 2.14-13.49 2.82 1.44 1.91 3.54 2.25 5.75 2.3a35.6 35.6 0 0 1-5.56.76c.91.08 2.76.34 5.1.27 4.58-.13 9.3-.83 14.02-2.57 4.81-1.8 8.08-3.81 10.24-6.53a11.6 11.6 0 0 0 1.49-2.33h22.79V8.37H153.6Z"/>
    <path fill="#0066B2" d="M15.45 32.8a5.48 5.48 0 0 0-2.38-1.55 47.9 47.9 0 0 0-4.22-1.26c-.49-.13-.89-.25-1.2-.36a1.9 1.9 0 0 1-.77-.44 1.46 1.46 0 0 1-.38-.72 5.2 5.2 0 0 1-.1-1.12v-1.92c0-.7.1-1.22.28-1.56.2-.35.72-.53 1.6-.53.43 0 .77.03 1 .09a.9.9 0 0 1 .57.34c.13.17.22.44.26.82.04.37.06.88.06 1.52v1.4h5.92v-3.48c0-1.02-.13-1.88-.38-2.59a3.72 3.72 0 0 0-1.28-1.74c-.6-.45-1.4-.78-2.38-1-1-.21-2.2-.32-3.64-.32-1.58 0-2.9.08-3.99.22a5.37 5.37 0 0 0-2.6.98 4.17 4.17 0 0 0-1.4 2.24c-.28 1-.42 2.33-.42 4v1.77c0 1.28.08 2.34.24 3.18.16.84.46 1.54.9 2.1a4.62 4.62 0 0 0 1.88 1.36c.82.35 1.86.68 3.14 1l2.09.54c.5.15.9.32 1.18.5.28.19.46.43.54.72.08.3.12.7.12 1.2v3.13c0 .61-.14 1.05-.42 1.32-.28.26-.8.4-1.55.4A3.1 3.1 0 0 1 7 42.88a1.15 1.15 0 0 1-.58-.5 2.3 2.3 0 0 1-.22-.86 16.8 16.8 0 0 1-.04-1.28v-2.09H0v2.4c0 1.45.1 2.65.32 3.6.21.97.63 1.73 1.24 2.29a5.5 5.5 0 0 0 2.6 1.2c1.12.24 2.58.36 4.37.36 1.41 0 2.63-.1 3.66-.3 1.02-.2 1.88-.6 2.56-1.18a5.12 5.12 0 0 0 1.5-2.5c.32-1.08.48-2.49.48-4.22 0-1.87-.08-3.35-.24-4.43a5.13 5.13 0 0 0-1.04-2.58M33.74 20.24c-1.27-1.02-3.1-1.54-5.5-1.54h-9.57v28.98h6.65v-8.25h2.24c1.5 0 2.75-.12 3.78-.38a5.2 5.2 0 0 0 2.5-1.34 5.54 5.54 0 0 0 1.38-2.64c.28-1.12.42-2.55.42-4.28v-5.04c0-2.65-.63-4.48-1.9-5.5Zm-4.98 11.87c0 .8-.13 1.36-.38 1.66-.26.3-.62.46-1.1.46h-1.96V23.91h1.92c.58 0 .98.08 1.2.26.21.17.32.5.32.98v6.96ZM52.03 19.58a7.37 7.37 0 0 0-2.7-.94c-1.07-.17-2.3-.26-3.68-.26-1.39 0-2.62.09-3.69.26a7.35 7.35 0 0 0-2.7.94 4.34 4.34 0 0 0-1.66 1.84 6.72 6.72 0 0 0-.56 2.93v17.69c0 1.17.19 2.14.56 2.92a4.4 4.4 0 0 0 1.66 1.84 7.3 7.3 0 0 0 2.7.94c1.07.17 2.3.26 3.69.26 1.38 0 2.61-.09 3.68-.26a7.31 7.31 0 0 0 2.7-.94 4.34 4.34 0 0 0 1.66-1.84c.38-.78.56-1.75.56-2.92v-17.7c0-1.17-.18-2.14-.56-2.92a4.35 4.35 0 0 0-1.66-1.84Zm-4.66 22.1c0 .53-.14.89-.4 1.08-.27.18-.7.28-1.32.28-.62 0-1.06-.1-1.32-.28-.27-.19-.4-.55-.4-1.08V24.7c0-.54.13-.9.4-1.08.26-.2.7-.29 1.32-.29.61 0 1.05.1 1.32.29.26.18.4.54.4 1.08v16.97ZM71.76 20.12a6.6 6.6 0 0 0-2.8-1.1 25.51 25.51 0 0 0-4.44-.32h-8.2v28.98h6.64v-10h1.12c1.12 0 1.88.13 2.3.4.41.26.62.7.62 1.31v8.29h6.64v-7.89c0-.88-.09-1.59-.28-2.14a2.98 2.98 0 0 0-.86-1.32 3.92 3.92 0 0 0-1.42-.76c-.56-.17-1.21-.34-1.96-.5V35c.7-.13 1.32-.3 1.88-.52a3.63 3.63 0 0 0 1.42-.96c.39-.43.69-1 .9-1.7.22-.7.32-1.6.32-2.7v-3.48c0-1.36-.14-2.5-.42-3.39a4.1 4.1 0 0 0-1.46-2.12ZM67 30.2c0 .93-.17 1.59-.5 1.96-.33.37-1.09.56-2.26.56h-1.28v-9.04h2c.72 0 1.24.17 1.56.52.32.34.48.89.48 1.64v4.36ZM74.993 23.905h4.642V47.68h6.644V23.905h4.644v-5.203h-15.93zM92.559 47.68h6.644V18.702h-6.644zM116.75 32.8a5.5 5.5 0 0 0-2.38-1.55c-1.05-.39-2.46-.8-4.22-1.26a24.7 24.7 0 0 1-1.2-.36 1.9 1.9 0 0 1-.76-.44 1.45 1.45 0 0 1-.38-.72c-.07-.3-.1-.67-.1-1.12v-1.92c0-.7.1-1.22.28-1.56.18-.35.72-.53 1.6-.53.42 0 .76.03 1 .09.24.05.43.16.56.34.13.17.22.44.26.82.04.37.06.88.06 1.52v1.4h5.92v-3.48a7.7 7.7 0 0 0-.38-2.59 3.7 3.7 0 0 0-1.28-1.74c-.6-.45-1.4-.78-2.38-1-.99-.21-2.2-.32-3.64-.32-1.58 0-2.9.08-3.98.22a5.37 5.37 0 0 0-2.6.98 4.16 4.16 0 0 0-1.4 2.24c-.29 1-.43 2.33-.43 4v1.77c0 1.28.08 2.34.24 3.18.16.84.46 1.54.9 2.1a4.64 4.64 0 0 0 1.88 1.36c.82.35 1.87.68 3.15 1l2.08.54c.5.15.9.32 1.18.5.28.19.46.43.54.72.08.3.12.7.12 1.2v3.13c0 .61-.14 1.05-.42 1.32-.28.26-.8.4-1.54.4a3.1 3.1 0 0 1-1.12-.16 1.11 1.11 0 0 1-.58-.5c-.12-.23-.2-.52-.22-.86-.03-.35-.04-.78-.04-1.28v-2.09h-6.17v2.4c0 1.45.11 2.65.32 3.6a4.3 4.3 0 0 0 1.24 2.29 5.5 5.5 0 0 0 2.6 1.2c1.13.24 2.58.36 4.37.36 1.41 0 2.63-.1 3.66-.3 1.03-.2 1.88-.6 2.56-1.18a5.13 5.13 0 0 0 1.5-2.5c.32-1.08.48-2.49.48-4.22 0-1.87-.08-3.35-.24-4.43a5.13 5.13 0 0 0-1.04-2.58M175.42 21.42a4.35 4.35 0 0 0-1.66-1.84 7.36 7.36 0 0 0-2.7-.94 23.7 23.7 0 0 0-3.69-.26c-1.38 0-2.61.09-3.68.26a7.36 7.36 0 0 0-2.7.94 4.34 4.34 0 0 0-1.66 1.84 6.7 6.7 0 0 0-.56 2.93v17.69c0 1.17.19 2.14.56 2.92.37.77.93 1.39 1.66 1.84.73.45 1.63.77 2.7.94 1.07.17 2.3.26 3.68.26 1.4 0 2.62-.09 3.69-.26a7.32 7.32 0 0 0 2.7-.94 4.34 4.34 0 0 0 1.66-1.84c.37-.78.56-1.75.56-2.92v-17.7c0-1.17-.19-2.14-.56-2.92Zm-6.32 20.26c0 .53-.14.89-.4 1.08-.27.18-.71.28-1.33.28-.61 0-1.05-.1-1.32-.28-.26-.19-.4-.55-.4-1.08V24.7c0-.54.14-.9.4-1.08.27-.2.71-.29 1.32-.29.62 0 1.06.1 1.32.29.27.18.4.54.4 1.08v16.97ZM120.15 47.68h6.65V23.11c-2.4-.01-4.65-.26-6.65-.7v25.27ZM143.02 41.52h-.08l-2.9-20.4a45.41 45.41 0 0 1-10.8 1.94v24.62h5.92v-24.5h.08l3.68 24.5h7.6l4.28-24.41h.08l-.24 24.41h6.09V18.7h-10.46l-3.25 22.82Z"/>
</svg>
